# xmcd CD database file
#
# Track frame offsets:
#	150
#	13448
#	31498
#	49231
#	70059
#	93788
#	112039
#	129888
#	145423
#	160740
#	178485
#	190133
#	205323
#	224919
#	248599
#
# Disc length: 3518 seconds
#
# Revision: 0
# Processed by: cddbd v1.5.2PL0 Copyright (c) Steve Scherf et al.
# Submitted via: CDex 1.51
#
DISCID=e40dbc0f
DTITLE=Rolf Raggenbass - Läbe!
DYEAR=2009
DGENRE=Country
TTITLE0=Alfa Romeo
TTITLE1=Läbe und läbe laa
TTITLE2=Ich träum vo Dir
TTITLE3=Mir zwei
TTITLE4=Big Daddy
TTITLE5=D'Antwort
TTITLE6=Lüüt wie Du
TTITLE7=Myn Ängel
TTITLE8=De Coiffeur Schorsch
TTITLE9=Mys arme schwache Herz
TTITLE10=Für de Helmi
TTITLE11=Maroneli
TTITLE12=Immer wänn mer Lotto schpielt
TTITLE13=Big Daddy
TTITLE14=Es chunnt scho alles guet
EXTD=YEAR: 2009
EXTT0=
EXTT1=
EXTT2=
EXTT3=
EXTT4=
EXTT5=
EXTT6=
EXTT7=
EXTT8=
EXTT9=
EXTT10=
EXTT11=
EXTT12=
EXTT13=
EXTT14=
PLAYORDER=
